<?xml version="1.0" encoding="UTF-8"?>
<svg width="118px" height="110px" viewBox="0 0 118 110" version="1.1" xmlns="http://www.w3.org/2000/svg" xmlns:xlink="http://www.w3.org/1999/xlink">
    <!-- Generator: Sketch 54.1 (76490) - https://sketchapp.com -->
    <title>Logo 2</title>
    <desc>Created with Sketch.</desc>
    <defs>
        <path d="M37.786,41 L0.394,41 L19.09,0.473 L37.786,41 Z M3.7,38.891 L34.48,38.891 L19.09,5.489 L3.7,38.891 Z M48.559,1.328 L48.559,28.175 L75.463,1.328 L78.427,1.328 L61.84,17.858 L78.37,41 L75.862,41 L60.358,19.34 L48.559,31.139 L48.559,41 L46.45,41 L46.45,1.328 L48.559,1.328 Z M89.77,1.328 L117.7,1.328 L117.7,3.437 L91.879,3.437 L91.879,19.511 L114.337,19.511 L114.337,21.62 L91.879,21.62 L91.879,38.891 L117.7,38.891 L117.7,41 L89.77,41 L89.77,1.328 Z M15.613,88.423 L27.925,71.551 L7.633,71.551 L7.633,69.442 L30.547,69.442 L30.547,71.551 L21.484,83.92 C23.4980101,84.3000019 25.3124919,85.0979939 26.9275,86.314 C28.5425081,87.5300061 29.8154953,89.0499909 30.7465,90.874 C31.6775047,92.6980091 32.143,94.6549895 32.143,96.745 C32.143,99.1010118 31.5540059,101.28599 30.376,103.3 C29.1979941,105.31401 27.61151,106.909994 25.6165,108.088 C23.62149,109.266006 21.4460118,109.855 19.09,109.855 C16.7339882,109.855 14.55851,109.266006 12.5635,108.088 C10.56849,106.909994 8.98200589,105.31401 7.804,103.3 C6.62599411,101.28599 6.037,99.1010118 6.037,96.745 L8.089,96.745 C8.089,98.7210099 8.58299506,100.554492 9.571,102.2455 C10.5590049,103.936508 11.8984915,105.275995 13.5895,106.264 C15.2805085,107.252005 17.1139901,107.746 19.09,107.746 C21.0660099,107.746 22.8994915,107.252005 24.5905,106.264 C26.2815085,105.275995 27.6209951,103.936508 28.609,102.2455 C29.5970049,100.554492 30.091,98.7210099 30.091,96.745 C30.091,94.8829907 29.6445045,93.154008 28.7515,91.558 C27.8584955,89.961992 26.6425077,88.6510051 25.1035,87.625 C23.5644923,86.5989949 21.8830091,86.0100008 20.059,85.858 L17.323,89.62 L15.613,88.423 Z M45.253,69.271 L47.533,69.271 L61.384,93.781 L75.178,69.271 L77.287,69.271 L77.287,108.943 L45.253,108.943 L45.253,69.271 Z M47.362,106.891 L75.178,106.891 L75.178,73.546 L62.353,96.118 L60.358,96.118 L47.362,73.204 L47.362,106.891 Z" id="path-1"></path>
    </defs>
    <g id="About" stroke="none" stroke-width="1" fill="none" fill-rule="evenodd">
        <g id="Desktop-HD" transform="translate(-66.000000, -59.000000)" fill-rule="nonzero">
            <g id="Logo-2" transform="translate(66.000000, 59.000000)">
                <g id="Ake3M">
                    <use fill="#4A4A4A" xlink:href="#path-1"></use>
                    <use fill="#FFFFFF" xlink:href="#path-1"></use>
                </g>
            </g>
        </g>
    </g>
</svg>